<svg width="24" height="25" viewBox="0 0 24 25" fill="none" xmlns="http://www.w3.org/2000/svg">
    <path d="M10 13.7539C10.4295 14.328 10.9774 14.8031 11.6066 15.1468C12.2357 15.4906 12.9315 15.695 13.6467 15.7462C14.3618 15.7974 15.0796 15.6942 15.7513 15.4437C16.4231 15.1931 17.0331 14.8009 17.54 14.2939L20.54 11.2939C21.4508 10.3509 21.9548 9.08785 21.9434 7.77687C21.932 6.46588 21.4061 5.21182 20.4791 4.28478C19.5521 3.35774 18.298 2.83189 16.987 2.8205C15.676 2.80911 14.413 3.31308 13.47 4.22387L11.75 5.93387" stroke="white" stroke-width="2" stroke-linecap="round" stroke-linejoin="round"/>
    <path d="M14 11.7541C13.5705 11.18 13.0226 10.7049 12.3934 10.3612C11.7642 10.0174 11.0684 9.81301 10.3533 9.7618C9.63816 9.71058 8.92037 9.81376 8.24861 10.0643C7.57685 10.3149 6.96684 10.7071 6.45996 11.2141L3.45996 14.2141C2.54917 15.1571 2.04519 16.4202 2.05659 17.7311C2.06798 19.0421 2.59382 20.2962 3.52086 21.2232C4.4479 22.1503 5.70197 22.6761 7.01295 22.6875C8.32393 22.6989 9.58694 22.1949 10.53 21.2841L12.24 19.5741" stroke="white" stroke-width="2" stroke-linecap="round" stroke-linejoin="round"/>
</svg>
