<svg width="142" height="22" viewBox="0 0 142 22" fill="none" xmlns="http://www.w3.org/2000/svg">
<mask id="path-1-outside-1_1561_13" maskUnits="userSpaceOnUse" x="0.71582" y="0.368164" width="141" height="21" fill="black">
<rect fill="white" x="0.71582" y="0.368164" width="141" height="21"/>
<path d="M2.71582 19.0002V3.42416H7.04982L11.0978 14.4902H11.1638L15.1678 3.42416H19.5238V19.0002H16.7738V6.48216H16.7298L11.9998 19.0002H10.0638L5.39982 6.48216H5.35582V19.0002H2.71582Z"/>
<path d="M28.2781 19.0002V17.6582H28.2121C27.6841 18.5822 26.4301 19.2642 24.9341 19.2642C23.2401 19.2642 20.9741 18.4502 20.9741 15.9862C20.9741 12.8402 24.9341 12.4002 28.2341 12.4002V12.1362C28.2341 10.8382 27.1341 10.2002 25.8141 10.2002C24.6921 10.2002 23.6141 10.7282 22.9321 11.4102L21.5681 9.80416C22.7561 8.70416 24.4281 8.13216 26.0341 8.13216C29.8181 8.13216 30.7421 10.4642 30.7421 12.5762V19.0002H28.2781ZM28.2341 14.5562V14.1822H27.6401C25.9681 14.1822 23.6141 14.3802 23.6141 15.9422C23.6141 16.9542 24.5601 17.2622 25.4621 17.2622C27.2661 17.2622 28.2341 16.2282 28.2341 14.5562Z"/>
<path d="M32.7178 19.0002V8.44016H35.2478V10.2002H35.2918C35.8638 8.99016 36.9858 8.13216 38.3718 8.13216C38.5698 8.13216 38.8338 8.15416 39.0098 8.19816V10.6182C38.6578 10.5302 38.4378 10.5082 38.1958 10.5082C35.8198 10.5082 35.3578 12.5762 35.3578 13.3462V19.0002H32.7178Z"/>
<path d="M39.6755 19.0002V8.44016H42.3155V19.0002H39.6755ZM39.3015 4.85416C39.3015 4.01816 40.0055 3.27016 40.9735 3.27016C41.9415 3.27016 42.6895 3.95216 42.6895 4.85416C42.6895 5.75616 41.9415 6.43816 40.9735 6.43816C40.0055 6.43816 39.3015 5.69016 39.3015 4.85416Z"/>
<path d="M50.9742 19.0002V17.6582H50.9082C50.3802 18.5822 49.1262 19.2642 47.6302 19.2642C45.9362 19.2642 43.6702 18.4502 43.6702 15.9862C43.6702 12.8402 47.6302 12.4002 50.9302 12.4002V12.1362C50.9302 10.8382 49.8302 10.2002 48.5102 10.2002C47.3882 10.2002 46.3102 10.7282 45.6282 11.4102L44.2642 9.80416C45.4522 8.70416 47.1242 8.13216 48.7302 8.13216C52.5142 8.13216 53.4382 10.4642 53.4382 12.5762V19.0002H50.9742ZM50.9302 14.5562V14.1822H50.3362C48.6642 14.1822 46.3102 14.3802 46.3102 15.9422C46.3102 16.9542 47.2562 17.2622 48.1582 17.2622C49.9622 17.2622 50.9302 16.2282 50.9302 14.5562Z"/>
<path d="M55.4139 19.0002V8.44016H57.9219V10.1342H57.9659C58.4279 9.07816 59.6819 8.13216 61.2439 8.13216C63.9939 8.13216 65.1379 10.2442 65.1379 12.4002V19.0002H62.4979V13.1482C62.4979 11.8942 62.2119 10.3322 60.5179 10.3322C58.8459 10.3322 58.0539 11.7842 58.0539 13.1922V19.0002H55.4139Z"/>
<path d="M66.5026 13.6762C66.5026 10.3542 69.0546 8.13216 72.2446 8.13216C75.4346 8.13216 77.9866 10.3542 77.9866 13.6762C77.9866 16.9982 75.4346 19.3082 72.2446 19.3082C69.0546 19.3082 66.5026 16.9982 66.5026 13.6762ZM69.1866 13.6762C69.1866 15.3262 70.1546 17.1082 72.2446 17.1082C74.3346 17.1082 75.3026 15.3262 75.3026 13.6762C75.3026 12.0262 74.3346 10.2882 72.2446 10.2882C70.1546 10.2882 69.1866 12.0262 69.1866 13.6762Z"/>
<path d="M79.9303 19.0002V3.42416H84.3303C87.4983 3.42416 89.5883 4.78816 89.5883 7.58216C89.5883 10.3762 87.4543 11.7622 84.2863 11.7622H81.5143V19.0002H79.9303ZM81.5143 4.78816V10.4202H84.1983C86.6623 10.4202 88.0043 9.43016 88.0043 7.58216C88.0043 5.66816 86.5963 4.78816 84.1983 4.78816H81.5143Z"/>
<path d="M90.7502 13.0602H97.7682C97.6802 11.1242 96.4922 9.69416 94.3582 9.69416C92.3562 9.69416 90.8822 11.3002 90.7502 13.0602ZM99.2862 13.5442C99.2862 13.7422 99.2862 13.9842 99.2642 14.2482H90.7282C90.7722 16.3162 92.3782 17.9882 94.4902 17.9882C96.0302 17.9882 97.2182 17.1302 97.7902 16.2062L98.9122 17.0862C97.7022 18.6262 96.1842 19.2642 94.4902 19.2642C91.4322 19.2642 89.1662 16.9542 89.1662 13.8522C89.1662 10.7502 91.4322 8.44016 94.3582 8.44016C97.5922 8.44016 99.2862 10.7282 99.2862 13.5442Z"/>
<path d="M109.874 17.2622C108.994 18.5602 107.454 19.2642 105.98 19.2642C102.768 19.2642 100.656 16.8882 100.656 13.8522C100.656 10.8162 102.768 8.44016 105.98 8.44016C107.454 8.44016 108.994 9.14416 109.874 10.4862H109.918V2.36816H111.414V19.0002H109.918V17.2622H109.874ZM102.24 13.8522C102.24 16.1402 103.648 17.9882 106.134 17.9882C108.444 17.9882 110.094 16.2062 110.094 13.8522C110.094 11.4982 108.444 9.69416 106.134 9.69416C103.648 9.69416 102.24 11.5642 102.24 13.8522Z"/>
<path d="M114.312 10.9702C114.312 10.4202 114.29 9.40816 114.224 8.70416H115.654C115.698 9.25416 115.742 10.0242 115.742 10.4642H115.786C116.358 9.27616 117.634 8.44016 119.086 8.44016C119.46 8.44016 119.768 8.46216 120.076 8.55016L119.878 9.95816C119.702 9.89216 119.218 9.82616 118.822 9.82616C117.238 9.82616 115.808 10.9702 115.808 13.7202V19.0002H114.312V10.9702Z"/>
<path d="M122.658 8.70416V19.0002H121.162V8.70416H122.658ZM122.966 4.74416C122.966 5.36016 122.438 5.80016 121.91 5.80016C121.382 5.80016 120.854 5.36016 120.854 4.74416C120.854 4.12816 121.382 3.68816 121.91 3.68816C122.438 3.68816 122.966 4.12816 122.966 4.74416Z"/>
<path d="M125.452 8.70416H126.882C126.926 9.25416 126.97 10.0242 126.97 10.4642H127.014C127.586 9.27616 129.082 8.44016 130.534 8.44016C133.152 8.44016 134.45 10.1342 134.45 12.6862V19.0002H132.954V13.3022C132.954 11.1462 132.316 9.69416 130.16 9.69416C128.576 9.69416 127.036 10.9702 127.036 13.7202V19.0002H125.54V10.9702C125.54 10.4202 125.518 9.40816 125.452 8.70416Z"/>
<path d="M138.741 8.70416V19.0002H137.245V8.70416H138.741ZM139.049 4.74416C139.049 5.36016 138.521 5.80016 137.993 5.80016C137.465 5.80016 136.937 5.36016 136.937 4.74416C136.937 4.12816 137.465 3.68816 137.993 3.68816C138.521 3.68816 139.049 4.12816 139.049 4.74416Z"/>
</mask>
<path d="M2.71582 19.0002V3.42416H7.04982L11.0978 14.4902H11.1638L15.1678 3.42416H19.5238V19.0002H16.7738V6.48216H16.7298L11.9998 19.0002H10.0638L5.39982 6.48216H5.35582V19.0002H2.71582Z" fill="#E8E8E8"/>
<path d="M28.2781 19.0002V17.6582H28.2121C27.6841 18.5822 26.4301 19.2642 24.9341 19.2642C23.2401 19.2642 20.9741 18.4502 20.9741 15.9862C20.9741 12.8402 24.9341 12.4002 28.2341 12.4002V12.1362C28.2341 10.8382 27.1341 10.2002 25.8141 10.2002C24.6921 10.2002 23.6141 10.7282 22.9321 11.4102L21.5681 9.80416C22.7561 8.70416 24.4281 8.13216 26.0341 8.13216C29.8181 8.13216 30.7421 10.4642 30.7421 12.5762V19.0002H28.2781ZM28.2341 14.5562V14.1822H27.6401C25.9681 14.1822 23.6141 14.3802 23.6141 15.9422C23.6141 16.9542 24.5601 17.2622 25.4621 17.2622C27.2661 17.2622 28.2341 16.2282 28.2341 14.5562Z" fill="#E8E8E8"/>
<path d="M32.7178 19.0002V8.44016H35.2478V10.2002H35.2918C35.8638 8.99016 36.9858 8.13216 38.3718 8.13216C38.5698 8.13216 38.8338 8.15416 39.0098 8.19816V10.6182C38.6578 10.5302 38.4378 10.5082 38.1958 10.5082C35.8198 10.5082 35.3578 12.5762 35.3578 13.3462V19.0002H32.7178Z" fill="#E8E8E8"/>
<path d="M39.6755 19.0002V8.44016H42.3155V19.0002H39.6755ZM39.3015 4.85416C39.3015 4.01816 40.0055 3.27016 40.9735 3.27016C41.9415 3.27016 42.6895 3.95216 42.6895 4.85416C42.6895 5.75616 41.9415 6.43816 40.9735 6.43816C40.0055 6.43816 39.3015 5.69016 39.3015 4.85416Z" fill="#E8E8E8"/>
<path d="M50.9742 19.0002V17.6582H50.9082C50.3802 18.5822 49.1262 19.2642 47.6302 19.2642C45.9362 19.2642 43.6702 18.4502 43.6702 15.9862C43.6702 12.8402 47.6302 12.4002 50.9302 12.4002V12.1362C50.9302 10.8382 49.8302 10.2002 48.5102 10.2002C47.3882 10.2002 46.3102 10.7282 45.6282 11.4102L44.2642 9.80416C45.4522 8.70416 47.1242 8.13216 48.7302 8.13216C52.5142 8.13216 53.4382 10.4642 53.4382 12.5762V19.0002H50.9742ZM50.9302 14.5562V14.1822H50.3362C48.6642 14.1822 46.3102 14.3802 46.3102 15.9422C46.3102 16.9542 47.2562 17.2622 48.1582 17.2622C49.9622 17.2622 50.9302 16.2282 50.9302 14.5562Z" fill="#E8E8E8"/>
<path d="M55.4139 19.0002V8.44016H57.9219V10.1342H57.9659C58.4279 9.07816 59.6819 8.13216 61.2439 8.13216C63.9939 8.13216 65.1379 10.2442 65.1379 12.4002V19.0002H62.4979V13.1482C62.4979 11.8942 62.2119 10.3322 60.5179 10.3322C58.8459 10.3322 58.0539 11.7842 58.0539 13.1922V19.0002H55.4139Z" fill="#E8E8E8"/>
<path d="M66.5026 13.6762C66.5026 10.3542 69.0546 8.13216 72.2446 8.13216C75.4346 8.13216 77.9866 10.3542 77.9866 13.6762C77.9866 16.9982 75.4346 19.3082 72.2446 19.3082C69.0546 19.3082 66.5026 16.9982 66.5026 13.6762ZM69.1866 13.6762C69.1866 15.3262 70.1546 17.1082 72.2446 17.1082C74.3346 17.1082 75.3026 15.3262 75.3026 13.6762C75.3026 12.0262 74.3346 10.2882 72.2446 10.2882C70.1546 10.2882 69.1866 12.0262 69.1866 13.6762Z" fill="#E8E8E8"/>
<path d="M79.9303 19.0002V3.42416H84.3303C87.4983 3.42416 89.5883 4.78816 89.5883 7.58216C89.5883 10.3762 87.4543 11.7622 84.2863 11.7622H81.5143V19.0002H79.9303ZM81.5143 4.78816V10.4202H84.1983C86.6623 10.4202 88.0043 9.43016 88.0043 7.58216C88.0043 5.66816 86.5963 4.78816 84.1983 4.78816H81.5143Z" fill="#E8E8E8"/>
<path d="M90.7502 13.0602H97.7682C97.6802 11.1242 96.4922 9.69416 94.3582 9.69416C92.3562 9.69416 90.8822 11.3002 90.7502 13.0602ZM99.2862 13.5442C99.2862 13.7422 99.2862 13.9842 99.2642 14.2482H90.7282C90.7722 16.3162 92.3782 17.9882 94.4902 17.9882C96.0302 17.9882 97.2182 17.1302 97.7902 16.2062L98.9122 17.0862C97.7022 18.6262 96.1842 19.2642 94.4902 19.2642C91.4322 19.2642 89.1662 16.9542 89.1662 13.8522C89.1662 10.7502 91.4322 8.44016 94.3582 8.44016C97.5922 8.44016 99.2862 10.7282 99.2862 13.5442Z" fill="#E8E8E8"/>
<path d="M109.874 17.2622C108.994 18.5602 107.454 19.2642 105.98 19.2642C102.768 19.2642 100.656 16.8882 100.656 13.8522C100.656 10.8162 102.768 8.44016 105.98 8.44016C107.454 8.44016 108.994 9.14416 109.874 10.4862H109.918V2.36816H111.414V19.0002H109.918V17.2622H109.874ZM102.24 13.8522C102.24 16.1402 103.648 17.9882 106.134 17.9882C108.444 17.9882 110.094 16.2062 110.094 13.8522C110.094 11.4982 108.444 9.69416 106.134 9.69416C103.648 9.69416 102.24 11.5642 102.24 13.8522Z" fill="#E8E8E8"/>
<path d="M114.312 10.9702C114.312 10.4202 114.29 9.40816 114.224 8.70416H115.654C115.698 9.25416 115.742 10.0242 115.742 10.4642H115.786C116.358 9.27616 117.634 8.44016 119.086 8.44016C119.46 8.44016 119.768 8.46216 120.076 8.55016L119.878 9.95816C119.702 9.89216 119.218 9.82616 118.822 9.82616C117.238 9.82616 115.808 10.9702 115.808 13.7202V19.0002H114.312V10.9702Z" fill="#E8E8E8"/>
<path d="M122.658 8.70416V19.0002H121.162V8.70416H122.658ZM122.966 4.74416C122.966 5.36016 122.438 5.80016 121.91 5.80016C121.382 5.80016 120.854 5.36016 120.854 4.74416C120.854 4.12816 121.382 3.68816 121.91 3.68816C122.438 3.68816 122.966 4.12816 122.966 4.74416Z" fill="#E8E8E8"/>
<path d="M125.452 8.70416H126.882C126.926 9.25416 126.97 10.0242 126.97 10.4642H127.014C127.586 9.27616 129.082 8.44016 130.534 8.44016C133.152 8.44016 134.45 10.1342 134.45 12.6862V19.0002H132.954V13.3022C132.954 11.1462 132.316 9.69416 130.16 9.69416C128.576 9.69416 127.036 10.9702 127.036 13.7202V19.0002H125.54V10.9702C125.54 10.4202 125.518 9.40816 125.452 8.70416Z" fill="#E8E8E8"/>
<path d="M138.741 8.70416V19.0002H137.245V8.70416H138.741ZM139.049 4.74416C139.049 5.36016 138.521 5.80016 137.993 5.80016C137.465 5.80016 136.937 5.36016 136.937 4.74416C136.937 4.12816 137.465 3.68816 137.993 3.68816C138.521 3.68816 139.049 4.12816 139.049 4.74416Z" fill="#E8E8E8"/>
<path d="M2.71582 19.0002V3.42416H7.04982L11.0978 14.4902H11.1638L15.1678 3.42416H19.5238V19.0002H16.7738V6.48216H16.7298L11.9998 19.0002H10.0638L5.39982 6.48216H5.35582V19.0002H2.71582Z" stroke="black" stroke-width="4" mask="url(#path-1-outside-1_1561_13)"/>
<path d="M28.2781 19.0002V17.6582H28.2121C27.6841 18.5822 26.4301 19.2642 24.9341 19.2642C23.2401 19.2642 20.9741 18.4502 20.9741 15.9862C20.9741 12.8402 24.9341 12.4002 28.2341 12.4002V12.1362C28.2341 10.8382 27.1341 10.2002 25.8141 10.2002C24.6921 10.2002 23.6141 10.7282 22.9321 11.4102L21.5681 9.80416C22.7561 8.70416 24.4281 8.13216 26.0341 8.13216C29.8181 8.13216 30.7421 10.4642 30.7421 12.5762V19.0002H28.2781ZM28.2341 14.5562V14.1822H27.6401C25.9681 14.1822 23.6141 14.3802 23.6141 15.9422C23.6141 16.9542 24.5601 17.2622 25.4621 17.2622C27.2661 17.2622 28.2341 16.2282 28.2341 14.5562Z" stroke="black" stroke-width="4" mask="url(#path-1-outside-1_1561_13)"/>
<path d="M32.7178 19.0002V8.44016H35.2478V10.2002H35.2918C35.8638 8.99016 36.9858 8.13216 38.3718 8.13216C38.5698 8.13216 38.8338 8.15416 39.0098 8.19816V10.6182C38.6578 10.5302 38.4378 10.5082 38.1958 10.5082C35.8198 10.5082 35.3578 12.5762 35.3578 13.3462V19.0002H32.7178Z" stroke="black" stroke-width="4" mask="url(#path-1-outside-1_1561_13)"/>
<path d="M39.6755 19.0002V8.44016H42.3155V19.0002H39.6755ZM39.3015 4.85416C39.3015 4.01816 40.0055 3.27016 40.9735 3.27016C41.9415 3.27016 42.6895 3.95216 42.6895 4.85416C42.6895 5.75616 41.9415 6.43816 40.9735 6.43816C40.0055 6.43816 39.3015 5.69016 39.3015 4.85416Z" stroke="black" stroke-width="4" mask="url(#path-1-outside-1_1561_13)"/>
<path d="M50.9742 19.0002V17.6582H50.9082C50.3802 18.5822 49.1262 19.2642 47.6302 19.2642C45.9362 19.2642 43.6702 18.4502 43.6702 15.9862C43.6702 12.8402 47.6302 12.4002 50.9302 12.4002V12.1362C50.9302 10.8382 49.8302 10.2002 48.5102 10.2002C47.3882 10.2002 46.3102 10.7282 45.6282 11.4102L44.2642 9.80416C45.4522 8.70416 47.1242 8.13216 48.7302 8.13216C52.5142 8.13216 53.4382 10.4642 53.4382 12.5762V19.0002H50.9742ZM50.9302 14.5562V14.1822H50.3362C48.6642 14.1822 46.3102 14.3802 46.3102 15.9422C46.3102 16.9542 47.2562 17.2622 48.1582 17.2622C49.9622 17.2622 50.9302 16.2282 50.9302 14.5562Z" stroke="black" stroke-width="4" mask="url(#path-1-outside-1_1561_13)"/>
<path d="M55.4139 19.0002V8.44016H57.9219V10.1342H57.9659C58.4279 9.07816 59.6819 8.13216 61.2439 8.13216C63.9939 8.13216 65.1379 10.2442 65.1379 12.4002V19.0002H62.4979V13.1482C62.4979 11.8942 62.2119 10.3322 60.5179 10.3322C58.8459 10.3322 58.0539 11.7842 58.0539 13.1922V19.0002H55.4139Z" stroke="black" stroke-width="4" mask="url(#path-1-outside-1_1561_13)"/>
<path d="M66.5026 13.6762C66.5026 10.3542 69.0546 8.13216 72.2446 8.13216C75.4346 8.13216 77.9866 10.3542 77.9866 13.6762C77.9866 16.9982 75.4346 19.3082 72.2446 19.3082C69.0546 19.3082 66.5026 16.9982 66.5026 13.6762ZM69.1866 13.6762C69.1866 15.3262 70.1546 17.1082 72.2446 17.1082C74.3346 17.1082 75.3026 15.3262 75.3026 13.6762C75.3026 12.0262 74.3346 10.2882 72.2446 10.2882C70.1546 10.2882 69.1866 12.0262 69.1866 13.6762Z" stroke="black" stroke-width="4" mask="url(#path-1-outside-1_1561_13)"/>
<path d="M79.9303 19.0002V3.42416H84.3303C87.4983 3.42416 89.5883 4.78816 89.5883 7.58216C89.5883 10.3762 87.4543 11.7622 84.2863 11.7622H81.5143V19.0002H79.9303ZM81.5143 4.78816V10.4202H84.1983C86.6623 10.4202 88.0043 9.43016 88.0043 7.58216C88.0043 5.66816 86.5963 4.78816 84.1983 4.78816H81.5143Z" stroke="black" stroke-width="4" mask="url(#path-1-outside-1_1561_13)"/>
<path d="M90.7502 13.0602H97.7682C97.6802 11.1242 96.4922 9.69416 94.3582 9.69416C92.3562 9.69416 90.8822 11.3002 90.7502 13.0602ZM99.2862 13.5442C99.2862 13.7422 99.2862 13.9842 99.2642 14.2482H90.7282C90.7722 16.3162 92.3782 17.9882 94.4902 17.9882C96.0302 17.9882 97.2182 17.1302 97.7902 16.2062L98.9122 17.0862C97.7022 18.6262 96.1842 19.2642 94.4902 19.2642C91.4322 19.2642 89.1662 16.9542 89.1662 13.8522C89.1662 10.7502 91.4322 8.44016 94.3582 8.44016C97.5922 8.44016 99.2862 10.7282 99.2862 13.5442Z" stroke="black" stroke-width="4" mask="url(#path-1-outside-1_1561_13)"/>
<path d="M109.874 17.2622C108.994 18.5602 107.454 19.2642 105.98 19.2642C102.768 19.2642 100.656 16.8882 100.656 13.8522C100.656 10.8162 102.768 8.44016 105.98 8.44016C107.454 8.44016 108.994 9.14416 109.874 10.4862H109.918V2.36816H111.414V19.0002H109.918V17.2622H109.874ZM102.24 13.8522C102.24 16.1402 103.648 17.9882 106.134 17.9882C108.444 17.9882 110.094 16.2062 110.094 13.8522C110.094 11.4982 108.444 9.69416 106.134 9.69416C103.648 9.69416 102.24 11.5642 102.24 13.8522Z" stroke="black" stroke-width="4" mask="url(#path-1-outside-1_1561_13)"/>
<path d="M114.312 10.9702C114.312 10.4202 114.29 9.40816 114.224 8.70416H115.654C115.698 9.25416 115.742 10.0242 115.742 10.4642H115.786C116.358 9.27616 117.634 8.44016 119.086 8.44016C119.46 8.44016 119.768 8.46216 120.076 8.55016L119.878 9.95816C119.702 9.89216 119.218 9.82616 118.822 9.82616C117.238 9.82616 115.808 10.9702 115.808 13.7202V19.0002H114.312V10.9702Z" stroke="black" stroke-width="4" mask="url(#path-1-outside-1_1561_13)"/>
<path d="M122.658 8.70416V19.0002H121.162V8.70416H122.658ZM122.966 4.74416C122.966 5.36016 122.438 5.80016 121.91 5.80016C121.382 5.80016 120.854 5.36016 120.854 4.74416C120.854 4.12816 121.382 3.68816 121.91 3.68816C122.438 3.68816 122.966 4.12816 122.966 4.74416Z" stroke="black" stroke-width="4" mask="url(#path-1-outside-1_1561_13)"/>
<path d="M125.452 8.70416H126.882C126.926 9.25416 126.97 10.0242 126.97 10.4642H127.014C127.586 9.27616 129.082 8.44016 130.534 8.44016C133.152 8.44016 134.45 10.1342 134.45 12.6862V19.0002H132.954V13.3022C132.954 11.1462 132.316 9.69416 130.16 9.69416C128.576 9.69416 127.036 10.9702 127.036 13.7202V19.0002H125.54V10.9702C125.54 10.4202 125.518 9.40816 125.452 8.70416Z" stroke="black" stroke-width="4" mask="url(#path-1-outside-1_1561_13)"/>
<path d="M138.741 8.70416V19.0002H137.245V8.70416H138.741ZM139.049 4.74416C139.049 5.36016 138.521 5.80016 137.993 5.80016C137.465 5.80016 136.937 5.36016 136.937 4.74416C136.937 4.12816 137.465 3.68816 137.993 3.68816C138.521 3.68816 139.049 4.12816 139.049 4.74416Z" stroke="black" stroke-width="4" mask="url(#path-1-outside-1_1561_13)"/>
</svg>
